<?xml version="1.0" encoding="iso-8859-1"?>
<!-- Uploaded to: SVG Repo, www.svgrepo.com, Generator: SVG Repo Mixer Tools -->
<svg version="1.1" id="Layer_1" xmlns="http://www.w3.org/2000/svg" xmlns:xlink="http://www.w3.org/1999/xlink" 
	 viewBox="0 0 512 512" xml:space="preserve">
<path style="fill:#6C994E;" d="M312.548,117.691H199.456c-10.538,0-19.081-8.543-19.081-19.081V61.126
	c0-29.196,23.753-52.948,52.948-52.948h45.357c29.196,0,52.949,23.753,52.949,52.948v37.482
	C331.629,109.148,323.086,117.691,312.548,117.691z M218.538,79.528h74.929V61.126c0-8.153-6.633-14.785-14.786-14.785h-45.357
	c-8.153,0-14.785,6.633-14.785,14.785L218.538,79.528L218.538,79.528z"/>
<path style="fill:#7EB35B;" d="M342.616,78.062H169.388c-30.046,0-54.403,24.357-54.403,54.403v22.127H397.02v-22.127
	C397.019,102.418,372.662,78.062,342.616,78.062z"/>
<path style="opacity:0.1;enable-background:new;" d="M213.003,78.062h-43.615c-30.046,0-54.403,24.357-54.403,54.403v22.127
	H158.6v-22.127C158.6,102.418,182.957,78.062,213.003,78.062z"/>
<path style="fill:#7EB35B;" d="M102.367,163.644l27.729,303.559c1.895,20.741,19.287,36.618,40.115,36.618h171.582
	c20.827,0,38.221-15.877,40.115-36.618l27.729-303.559H102.367z"/>
<path style="opacity:0.1;enable-background:new;" d="M173.711,467.204l-27.729-303.559h-43.615l27.729,303.559
	c1.895,20.741,19.287,36.618,40.115,36.618h43.615C192.998,503.822,175.605,487.945,173.711,467.204z"/>
<path style="fill:#6C994E;" d="M397.019,123.917H114.985c-19.91,0-36.05,16.14-36.05,36.05v25.299h354.132v-25.299
	C433.068,140.056,416.929,123.917,397.019,123.917z"/>
<path style="opacity:0.1;enable-background:new;" d="M158.6,123.917h-43.615c-19.91,0-36.05,16.14-36.05,36.05v25.299h43.615
	v-25.299C122.551,140.056,138.69,123.917,158.6,123.917z"/>
<path d="M78.936,193.443h17.941l16.938,185.423c0.387,4.246,3.953,7.434,8.134,7.434c0.25,0,0.5-0.012,0.753-0.034
	c4.498-0.411,7.811-4.39,7.4-8.888l-16.801-183.936h213.767c4.516,0,8.178-3.661,8.178-8.178s-3.661-8.178-8.178-8.178H87.114
	v-17.121c0-15.369,12.503-27.872,27.872-27.872h0.674h47.961c4.516,0,8.178-3.661,8.178-8.178s-3.661-8.178-8.178-8.178h-37.362
	c6.724-17.549,23.581-29.5,43.131-29.5h173.228c19.549,0,36.407,11.95,43.131,29.5H196.331c-4.516,0-8.178,3.661-8.178,8.178
	s3.661,8.178,8.178,8.178h200.015h0.674c15.369,0,27.872,12.503,27.872,27.872v17.121h-65.112c-4.516,0-8.178,3.661-8.178,8.178
	s3.661,8.178,8.178,8.178h38.925L373.765,466.46c-1.52,16.638-15.265,29.184-31.972,29.184H170.21
	c-16.707,0-30.452-12.547-31.972-29.184l-5.15-56.37c-0.411-4.498-4.391-7.807-8.888-7.4c-4.498,0.411-7.811,4.39-7.4,8.888
	l5.15,56.371C124.245,493.061,144.991,512,170.209,512h171.582c25.218,0,45.964-18.939,48.259-44.052l25.075-274.505h17.941
	c4.516,0,8.178-3.661,8.178-8.178v-25.299c0-22.344-16.659-40.859-38.206-43.807c-7.236-27.172-31.674-46.276-60.424-46.276h-2.809
	v-8.758C339.805,27.421,312.384,0,278.678,0h-45.357c-33.705,0-61.126,27.421-61.126,61.126v8.758h-2.809
	c-28.75,0-53.188,19.104-60.424,46.276c-21.548,2.947-38.206,21.463-38.206,43.807v25.299
	C70.758,189.782,74.42,193.443,78.936,193.443z M285.289,69.884h-58.573v-8.758c0-3.644,2.965-6.608,6.608-6.608h45.357
	c3.644,0,6.609,2.964,6.609,6.608V69.884z M188.553,61.126c0-24.687,20.083-44.77,44.77-44.77h45.357
	c24.687,0,44.772,20.083,44.772,44.77v8.758h-21.807v-8.758c0-12.661-10.302-22.963-22.964-22.963h-45.357
	c-12.662,0-22.963,10.302-22.963,22.963v8.758h-21.807L188.553,61.126L188.553,61.126z"/>
</svg>
